#tb 0: 1/25
0,          0,          0,        1,   152064, 0x3b21d6cd
0,          1,          1,        1,   152064, 0xc32088c6
0,          2,          2,        1,   152064, 0x65a64cee
0,          3,          3,        1,   152064, 0x0bd45a5b
0,          4,          4,        1,   152064, 0xb2210d4d
0,          5,          5,        1,   152064, 0xf5b15527
0,          6,          6,        1,   152064, 0x806572ad
0,          7,          7,        1,   152064, 0x6ecb1fc8
0,          8,          8,        1,   152064, 0xc25e96d5
0,          9,          9,        1,   152064, 0x5593b825
0,         10,         10,        1,   152064, 0xf3be1cff
0,         11,         11,        1,   152064, 0xa9155072
0,         12,         12,        1,   152064, 0xd5552e26
0,         13,         13,        1,   152064, 0x7bf0dbee
0,         14,         14,        1,   152064, 0x998b4911
0,         15,         15,        1,   152064, 0xcc71bbe0
0,         16,         16,        1,   152064, 0x602415b8
0,         17,         17,        1,   152064, 0xcfff37cf
0,         18,         18,        1,   152064, 0x7cf824a8
0,         19,         19,        1,   152064, 0x34816ee5
0,         20,         20,        1,   152064, 0x1480540c
0,         21,         21,        1,   152064, 0xc2351aaf
0,         22,         22,        1,   152064, 0x3b8eac9f
0,         23,         23,        1,   152064, 0x92a8faf8
0,         24,         24,        1,   152064, 0x7b6121c8
0,         25,         25,        1,   152064, 0xe73a3bac
0,         26,         26,        1,   152064, 0xcd6e1e36
0,         27,         27,        1,   152064, 0xb24660b1
0,         28,         28,        1,   152064, 0xa290ec25
0,         29,         29,        1,   152064, 0x308915ff
0,         30,         30,        1,   152064, 0x1e8dd4db
0,         31,         31,        1,   152064, 0x1372f2e0
0,         32,         32,        1,   152064, 0xa07cc1d0
0,         33,         33,        1,   152064, 0x34bb872c
0,         34,         34,        1,   152064, 0x59e6a565
0,         35,         35,        1,   152064, 0x9a097932
0,         36,         36,        1,   152064, 0x938f2e20
0,         37,         37,        1,   152064, 0x59a8157d
0,         38,         38,        1,   152064, 0x5cacd404
0,         39,         39,        1,   152064, 0xdad068f5
0,         40,         40,        1,   152064, 0x7ba67d47
0,         41,         41,        1,   152064, 0xc2a11e2d
0,         42,         42,        1,   152064, 0xd37fdef7
0,         43,         43,        1,   152064, 0x19a3f80a
0,         44,         44,        1,   152064, 0x7ec7426a
0,         45,         45,        1,   152064, 0x8ffedb61
0,         46,         46,        1,   152064, 0x82aebdd0
0,         47,         47,        1,   152064, 0xdfc920cc
0,         48,         48,        1,   152064, 0x2a467698
0,         49,         49,        1,   152064, 0xd08a37d5
0,         50,         50,        1,   152064, 0xe606e66a
0,         51,         51,        1,   152064, 0x0e7b8bd8
0,         52,         52,        1,   152064, 0xf983c732
0,         53,         53,        1,   152064, 0x9b82c2e7
0,         54,         54,        1,   152064, 0xa990a47e
0,         55,         55,        1,   152064, 0x2d5679f1
0,         56,         56,        1,   152064, 0x7f1c0201
0,         57,         57,        1,   152064, 0xc38b709d
0,         58,         58,        1,   152064, 0x040246d8
0,         59,         59,        1,   152064, 0xbc856021
0,         60,         60,        1,   152064, 0x81e01a78
0,         61,         61,        1,   152064, 0xaff1e7f1
0,         62,         62,        1,   152064, 0x1fee7715
0,         63,         63,        1,   152064, 0x65053711
0,         64,         64,        1,   152064, 0x238a0118
0,         65,         65,        1,   152064, 0x563491b4
0,         66,         66,        1,   152064, 0x5974a6cc
0,         67,         67,        1,   152064, 0xd8682c35
0,         68,         68,        1,   152064, 0x85c49e96
0,         69,         69,        1,   152064, 0x29486faa
0,         70,         70,        1,   152064, 0x1a4f0579
0,         71,         71,        1,   152064, 0x6ab86c2f
0,         72,         72,        1,   152064, 0x36a36d2b
0,         73,         73,        1,   152064, 0x3bd77543
0,         74,         74,        1,   152064, 0x8fbddc41
0,         75,         75,        1,   152064, 0xccc6e0a5
0,         76,         76,        1,   152064, 0x00a9539e
0,         77,         77,        1,   152064, 0x07ba0714
0,         78,         78,        1,   152064, 0xbab2735d
0,         79,         79,        1,   152064, 0x79cb5ba0
0,         80,         80,        1,   152064, 0xdbcc1c92
0,         81,         81,        1,   152064, 0xffec952c
0,         82,         82,        1,   152064, 0xc31ac68e
0,         83,         83,        1,   152064, 0x24293eb9
0,         84,         84,        1,   152064, 0x7b9b2cb4
0,         85,         85,        1,   152064, 0x9dd4fe95
0,         86,         86,        1,   152064, 0xb62e8baf
0,         87,         87,        1,   152064, 0x9fefc174
0,         88,         88,        1,   152064, 0xe027c24e
0,         89,         89,        1,   152064, 0xe38adc70
0,         90,         90,        1,   152064, 0xc7bf536f
0,         91,         91,        1,   152064, 0x4448f330
0,         92,         92,        1,   152064, 0x4dad5339
0,         93,         93,        1,   152064, 0x48fbab15
0,         94,         94,        1,   152064, 0xe6c97b2c
0,         95,         95,        1,   152064, 0x3c3829ee
0,         96,         96,        1,   152064, 0x927772c0
0,         97,         97,        1,   152064, 0xbb0f0ef4
0,         98,         98,        1,   152064, 0xe65780a7
0,         99,         99,        1,   152064, 0xaf8f6d72
